<?xml version="1.0" encoding="iso-8859-1"?>
<!-- Generator: Adobe Illustrator 19.0.0, SVG Export Plug-In . SVG Version: 6.00 Build 0)  -->
<svg version="1.1" id="Capa_1" xmlns="http://www.w3.org/2000/svg" xmlns:xlink="http://www.w3.org/1999/xlink" x="0px" y="0px"
	 viewBox="0 0 512 512" style="enable-background:new 0 0 512 512;" xml:space="preserve">
<g>
	<g>
		<path d="M503.467,51.2H290.133c-13.943,0-26.342,6.724-34.133,17.092C248.209,57.924,235.81,51.2,221.867,51.2H8.533
			C3.823,51.2,0,55.023,0,59.733v315.733C0,380.186,3.823,384,8.533,384h213.333c14.114,0,25.6,11.486,25.6,25.6
			c0,4.719,3.823,8.533,8.533,8.533c4.719,0,8.533-3.814,8.533-8.533c0-14.114,11.486-25.6,25.6-25.6H435.2
			c2.27,0,4.437-0.896,6.033-2.5l68.267-68.267c1.604-1.596,2.5-3.763,2.5-6.033V59.733C512,55.023,508.186,51.2,503.467,51.2z
			 M494.933,303.667l-63.266,63.266H290.133c-13.943,0-26.342,6.724-34.133,17.092c-7.791-10.368-20.19-17.092-34.133-17.092h-204.8
			V68.267h204.8c14.114,0,25.6,11.486,25.6,25.6c0,4.71,3.823,8.533,8.533,8.533c4.719,0,8.533-3.823,8.533-8.533
			c0-14.114,11.486-25.6,25.6-25.6h204.8V303.667z"/>
	</g>
</g>
<g>
	<g>
		<rect x="247.467" y="93.867" width="17.067" height="315.733"/>
	</g>
</g>
<g>
	<g>
		<path d="M494.933,307.2v93.867H358.4v17.067h145.067c4.719,0,8.533-3.814,8.533-8.533V307.2H494.933z"/>
	</g>
</g>
<g>
	<g>
		<path d="M17.067,401.067v-25.6H0V409.6c0,4.719,3.823,8.533,8.533,8.533H307.2v-17.067H17.067z"/>
	</g>
</g>
<g>
	<g>
		<path d="M221.867,93.867h-179.2c-4.71,0-8.533,3.823-8.533,8.533v238.933c0,4.719,3.823,8.533,8.533,8.533h179.2
			c4.71,0,8.533-3.814,8.533-8.533V102.4C230.4,97.69,226.577,93.867,221.867,93.867z M213.333,332.8H51.2V110.933h162.133V332.8z"
			/>
	</g>
</g>
<g>
	<g>
		<rect x="281.6" y="230.4" width="51.2" height="17.067"/>
	</g>
</g>
<g>
	<g>
		<rect x="281.6" y="128" width="42.667" height="17.067"/>
	</g>
</g>
<g>
	<g>
		<rect x="281.6" y="196.267" width="42.667" height="17.067"/>
	</g>
</g>
<g>
	<g>
		<rect x="281.6" y="162.133" width="59.733" height="17.067"/>
	</g>
</g>
<g>
	<g>
		<rect x="281.6" y="93.867" width="76.8" height="17.067"/>
	</g>
</g>
<g>
	<g>
		<rect x="443.733" y="128" width="25.6" height="17.067"/>
	</g>
</g>
<g>
	<g>
		<rect x="443.733" y="162.133" width="25.6" height="17.067"/>
	</g>
</g>
<g>
	<g>
		<rect x="443.733" y="196.267" width="25.6" height="17.067"/>
	</g>
</g>
<g>
	<g>
		<rect x="443.733" y="230.4" width="25.6" height="17.067"/>
	</g>
</g>
<g>
	<g>
		<path d="M349.867,375.467v60.86l-12.339-8.226c-2.867-1.92-6.596-1.92-9.463,0l-12.331,8.226v-60.86h-17.067v76.8
			c0,3.149,1.732,6.042,4.514,7.526c2.765,1.485,6.144,1.314,8.755-0.427l20.864-13.909l20.864,13.909
			c1.425,0.947,3.081,1.434,4.736,1.434c1.382,0,2.765-0.333,4.028-1.007c2.773-1.485,4.506-4.378,4.506-7.526v-76.8H349.867z"/>
	</g>
</g>
<g>
	<g>
		<path d="M435.2,298.667c-4.719,0-8.533,3.814-8.533,8.533v68.267h17.067v-59.733h59.733v-17.067H435.2z"/>
	</g>
</g>
<g>
	<g>
		<rect x="435.2" y="366.933" width="76.8" height="17.067"/>
	</g>
</g>
<g>
	<g>
		<rect x="281.6" y="298.667" width="51.2" height="17.067"/>
	</g>
</g>
<g>
	<g>
		<rect x="281.6" y="264.533" width="42.667" height="17.067"/>
	</g>
</g>
<g>
	<g>
		<rect x="443.733" y="264.533" width="25.6" height="17.067"/>
	</g>
</g>
<g>
	<g>
		<path d="M221.867,247.467H76.8c-4.71,0-8.533,3.823-8.533,8.533c0,23.526,19.14,42.667,42.667,42.667h110.933
			c4.71,0,8.533-3.814,8.533-8.533V256C230.4,251.29,226.577,247.467,221.867,247.467z M213.333,281.6h-102.4
			c-11.128,0-20.617-7.134-24.141-17.067h126.541V281.6z"/>
	</g>
</g>
<g>
	<g>
		<path d="M203.93,214.204c-3.49-15.147-17.075-26.47-33.263-26.47h-25.6c-16.188,0-29.773,11.324-33.263,26.47
			c-15.147,3.49-26.47,17.075-26.47,33.263V256H102.4v-8.533c0-9.412,7.654-17.067,17.067-17.067c4.71,0,8.533-3.823,8.533-8.533
			c0-9.412,7.654-17.067,17.067-17.067h25.6c9.412,0,17.067,7.654,17.067,17.067c0,4.71,3.823,8.533,8.533,8.533
			c9.412,0,17.067,7.654,17.067,17.067V256H230.4v-8.533C230.4,231.279,219.076,217.694,203.93,214.204z"/>
	</g>
</g>
<g>
	<g>
		<rect x="42.667" y="281.6" width="68.267" height="17.067"/>
	</g>
</g>
<g>
	<g>
		<rect x="68.267" y="128" width="51.2" height="17.067"/>
	</g>
</g>
<g>
	<g>
		<rect x="68.267" y="162.133" width="34.133" height="17.067"/>
	</g>
</g>
<g>
	<g>
		<rect x="68.267" y="196.267" width="25.6" height="17.067"/>
	</g>
</g>
<g>
	<g>
		<rect x="281.6" y="332.8" width="128" height="17.067"/>
	</g>
</g>
<g>
	<g>
		<rect x="349.867" y="298.667" width="59.733" height="17.067"/>
	</g>
</g>
<g>
</g>
<g>
</g>
<g>
</g>
<g>
</g>
<g>
</g>
<g>
</g>
<g>
</g>
<g>
</g>
<g>
</g>
<g>
</g>
<g>
</g>
<g>
</g>
<g>
</g>
<g>
</g>
<g>
</g>
</svg>
